<svg width="140" height="61" viewBox="0 0 140 61" fill="none" xmlns="http://www.w3.org/2000/svg">
        <path d="M-6.07689 57.6229C-6.07689 55.9886 -7.40282 54.6636 -9.03844 54.6636C-10.6741 54.6636 -12 55.9886 -12 57.6229C-12 59.2573 -10.6741 60.5822 -9.03844 60.5822C-7.40282 60.5822 -6.07689 59.2573 -6.07689 57.6229Z" fill="url(#paint0_linear_1303_3313)" />
        <path d="M-6.07689 3.06414C-6.07689 1.42976 -7.40282 0.104839 -9.03844 0.104839C-10.6741 0.104839 -12 1.42976 -12 3.06414C-12 4.69851 -10.6741 6.02344 -9.03844 6.02344C-7.40282 6.02344 -6.07689 4.69851 -6.07689 3.06414Z" fill="url(#paint1_linear_1303_3313)" />
        <path d="M-9.27689 4.33649L-9.2769 56.1409L-8.79999 56.1409L-8.79999 4.33649L-9.27689 4.33649Z" fill="url(#paint2_linear_1303_3313)" />
        <path d="M6.54668 57.5229C6.54668 55.8885 5.22075 54.5636 3.58512 54.5636C1.9495 54.5636 0.62357 55.8885 0.62357 57.5229C0.62357 59.1572 1.9495 60.4822 3.58512 60.4822C5.22075 60.4822 6.54668 59.1572 6.54668 57.5229Z" fill="url(#paint3_linear_1303_3313)" />
        <path d="M6.54668 2.9593C6.54668 1.32492 5.22075 2.05355e-07 3.58512 1.85851e-07C1.9495 1.66346e-07 0.62357 1.32492 0.62357 2.9593C0.62357 4.59367 1.9495 5.9186 3.58512 5.9186C5.22075 5.9186 6.54668 4.59367 6.54668 2.9593Z" fill="url(#paint4_linear_1303_3313)" />
        <path d="M3.34668 4.23642L3.34667 56.0408L3.82358 56.0408L3.82358 4.23642L3.34668 4.23642Z" fill="url(#paint5_linear_1303_3313)" />
        <path d="M19.9142 54.9639C19.9142 53.3295 18.5883 52.0046 16.9527 52.0046C15.317 52.0046 13.9911 53.3295 13.9911 54.9639C13.9911 56.5982 15.317 57.9231 16.9527 57.9231C18.5883 57.9231 19.9142 56.5982 19.9142 54.9639Z" fill="url(#paint6_linear_1303_3313)" />
        <path d="M19.4469 5.69463C19.4469 4.31818 18.3302 3.20234 16.9527 3.20234C15.5752 3.20234 14.4585 4.31818 14.4585 5.69463C14.4585 7.07108 15.5752 8.18692 16.9527 8.18692C18.3302 8.18692 19.4469 7.07108 19.4469 5.69463Z" fill="url(#paint7_linear_1303_3313)" />
        <path d="M16.7142 5.1752L16.7142 53.4866L17.1911 53.4866L17.1911 5.1752L16.7142 5.1752Z" fill="url(#paint8_linear_1303_3313)" />
        <path d="M33.5011 50.5273C33.5011 48.5771 31.919 46.9961 29.9673 46.9961C28.0156 46.9961 26.4334 48.5771 26.4334 50.5273C26.4334 52.4775 28.0156 54.0584 29.9673 54.0584C31.919 54.0584 33.5011 52.4775 33.5011 50.5273Z" fill="url(#paint9_linear_1303_3313)" />
        <path d="M32.1324 10.3504C32.1324 9.15554 31.1631 8.18692 29.9673 8.18692C28.7715 8.18692 27.8022 9.15554 27.8022 10.3504C27.8022 11.5453 28.7715 12.5139 29.9673 12.5139C31.1631 12.5139 32.1324 11.5453 32.1324 10.3504Z" fill="url(#paint10_linear_1303_3313)" />
        <path d="M29.7288 9.72137L29.7288 49.0453L30.2057 49.0453L30.2057 9.72137L29.7288 9.72137Z" fill="url(#paint11_linear_1303_3313)" />
        <path d="M45.9769 44.928C45.9769 42.9778 44.3947 41.3968 42.443 41.3968C40.4913 41.3968 38.9092 42.9778 38.9092 44.928C38.9092 46.8782 40.4913 48.4591 42.443 48.4591C44.3947 48.4591 45.9769 46.8782 45.9769 44.928Z" fill="url(#paint12_linear_1303_3313)" />
        <path d="M44.384 16.0021C44.384 14.931 43.515 14.0626 42.443 14.0626C41.371 14.0626 40.502 14.931 40.502 16.0021C40.502 17.0733 41.371 17.9416 42.443 17.9416C43.515 17.9416 44.384 17.0733 44.384 16.0021Z" fill="url(#paint13_linear_1303_3313)" />
        <path d="M42.2046 16.4596L42.2046 43.4507L42.6815 43.4507L42.6815 16.4596L42.2046 16.4596Z" fill="url(#paint14_linear_1303_3313)" />
        <path d="M57.5179 37.8657C57.5179 35.7155 55.7734 33.9724 53.6216 33.9724C51.4697 33.9724 49.7253 35.7155 49.7253 37.8657C49.7253 40.0159 51.4697 41.759 53.6216 41.759C55.7734 41.759 57.5179 40.0159 57.5179 37.8657Z" fill="url(#paint15_linear_1303_3313)" />
        <path d="M53.3831 22.3163L53.3831 37.3415L53.86 37.3415L53.86 22.3163L53.3831 22.3163Z" fill="url(#paint16_linear_1303_3313)" />
        <path d="M55.3766 22.8976C55.3766 21.9528 54.61 21.1869 53.6645 21.1869C52.7189 21.1869 51.9524 21.9528 51.9524 22.8976C51.9524 23.8425 52.7189 24.6084 53.6645 24.6084C54.61 24.6084 55.3766 23.8425 55.3766 22.8976Z" fill="url(#paint17_linear_1303_3313)" />
        <path d="M67.6806 30.4746C67.6806 28.0664 65.7269 26.1143 63.317 26.1143C60.907 26.1143 58.9533 28.0664 58.9533 30.4746C58.9533 32.8827 60.907 34.8349 63.317 34.8349C65.7269 34.8349 67.6806 32.8827 67.6806 30.4746Z" fill="url(#paint18_linear_1303_3313)" />
        <path d="M76.3125 22.8976C76.3125 20.7474 74.5681 19.0043 72.4162 19.0043C70.2644 19.0043 68.52 20.7474 68.52 22.8976C68.52 25.0479 70.2644 26.7909 72.4162 26.7909C74.5681 26.7909 76.3125 25.0479 76.3125 22.8976Z" fill="url(#paint19_linear_1303_3313)" />
        <path d="M72.2255 23.2932L72.2255 38.3184L72.7024 38.3184L72.7024 23.2932L72.2255 23.2932Z" fill="url(#paint20_linear_1303_3313)" />
        <path d="M74.1283 37.7322C74.1283 36.7874 73.3618 36.0215 72.4162 36.0215C71.4707 36.0215 70.7042 36.7874 70.7042 37.7322C70.7042 38.6771 71.4707 39.443 72.4162 39.443C73.3618 39.443 74.1283 38.6771 74.1283 37.7322Z" fill="url(#paint21_linear_1303_3313)" />
        <path d="M85.8362 44.8851C85.8362 43.8139 84.9672 42.9456 83.8953 42.9456C82.8233 42.9456 81.9543 43.8139 81.9543 44.8851C81.9543 45.9562 82.8233 46.8246 83.8953 46.8246C84.9672 46.8246 85.8362 45.9562 85.8362 44.8851Z" fill="url(#paint22_linear_1303_3313)" />
        <path d="M83.6568 17.4365L83.6568 44.4276L84.1337 44.4276L84.1337 17.4365L83.6568 17.4365Z" fill="url(#paint23_linear_1303_3313)" />
        <path d="M87.4291 16.0021C87.4291 14.0519 85.8469 12.471 83.8953 12.471C81.9436 12.471 80.3614 14.0519 80.3614 16.0021C80.3614 17.9523 81.9436 19.5333 83.8953 19.5333C85.8469 19.5333 87.4291 17.9523 87.4291 16.0021Z" fill="url(#paint24_linear_1303_3313)" />
        <path d="M138.519 3.14039C138.519 1.50601 137.194 0.181093 135.558 0.181093C133.922 0.181093 132.596 1.50601 132.596 3.14039C132.596 4.77477 133.922 6.09968 135.558 6.09968C137.194 6.09968 138.519 4.77477 138.519 3.14039Z" fill="url(#paint25_linear_1303_3313)" />
        <path d="M138.519 57.7039C138.519 56.0696 137.194 54.7446 135.558 54.7446C133.922 54.7446 132.596 56.0696 132.596 57.7039C132.596 59.3383 133.922 60.6632 135.558 60.6632C137.194 60.6632 138.519 59.3383 138.519 57.7039Z" fill="url(#paint26_linear_1303_3313)" />
        <path d="M135.319 4.61765L135.319 56.4221L135.796 56.4221L135.796 4.61765L135.319 4.61765Z" fill="url(#paint27_linear_1303_3313)" />
        <path d="M125.896 3.24046C125.896 1.60609 124.57 0.281164 122.934 0.281164C121.299 0.281164 119.973 1.60609 119.973 3.24046C119.973 4.87484 121.299 6.19976 122.934 6.19976C124.57 6.19976 125.896 4.87484 125.896 3.24046Z" fill="url(#paint28_linear_1303_3313)" />
        <path d="M125.896 57.804C125.896 56.1696 124.57 54.8447 122.934 54.8447C121.299 54.8447 119.973 56.1696 119.973 57.804C119.973 59.4384 121.299 60.7633 122.934 60.7633C124.57 60.7633 125.896 59.4384 125.896 57.804Z" fill="url(#paint29_linear_1303_3313)" />
        <path d="M122.696 4.72249L122.696 56.5269L123.173 56.5269L123.173 4.72249L122.696 4.72249Z" fill="url(#paint30_linear_1303_3313)" />
        <path d="M112.533 5.79947C112.533 4.16509 111.207 2.84017 109.572 2.84017C107.936 2.84017 106.61 4.16509 106.61 5.79947C106.61 7.43384 107.936 8.75877 109.572 8.75877C111.207 8.75877 112.533 7.43384 112.533 5.79947Z" fill="url(#paint31_linear_1303_3313)" />
        <path d="M112.066 55.0687C112.066 53.6922 110.949 52.5764 109.572 52.5764C108.194 52.5764 107.077 53.6922 107.077 55.0687C107.077 56.4451 108.194 57.561 109.572 57.561C110.949 57.561 112.066 56.4451 112.066 55.0687Z" fill="url(#paint32_linear_1303_3313)" />
        <path d="M109.333 7.2815L109.333 55.5929L109.81 55.5929L109.81 7.2815L109.333 7.2815Z" fill="url(#paint33_linear_1303_3313)" />
        <path d="M100.086 10.2408C100.086 8.2906 98.5039 6.70965 96.5522 6.70965C94.6005 6.70965 93.0184 8.2906 93.0184 10.2408C93.0184 12.191 94.6005 13.7719 96.5522 13.7719C98.5039 13.7719 100.086 12.191 100.086 10.2408Z" fill="url(#paint34_linear_1303_3313)" />
        <path d="M98.7173 50.4129C98.7173 49.2181 97.748 48.2494 96.5522 48.2494C95.3564 48.2494 94.3871 49.2181 94.3871 50.4129C94.3871 51.6078 95.3564 52.5764 96.5522 52.5764C97.748 52.5764 98.7173 51.6078 98.7173 50.4129Z" fill="url(#paint35_linear_1303_3313)" />
        <path d="M96.3138 11.7181L96.3138 51.0419L96.7907 51.0419L96.7907 11.7181L96.3138 11.7181Z" fill="url(#paint36_linear_1303_3313)" />
        <path d="M151 55.1449C151 53.1947 149.418 51.6138 147.466 51.6138C145.514 51.6138 143.932 53.1947 143.932 55.1449C143.932 57.0951 145.514 58.6761 147.466 58.6761C149.418 58.6761 151 57.0951 151 55.1449Z" fill="url(#paint37_linear_1303_3313)" />
        <path d="M149.631 5.79947C149.631 4.60461 148.662 3.63599 147.466 3.63599C146.27 3.63599 145.301 4.60461 145.301 5.79947C145.301 6.99433 146.27 7.96295 147.466 7.96295C148.662 7.96295 149.631 6.99433 149.631 5.79947Z" fill="url(#paint38_linear_1303_3313)" />
        <path d="M147.228 6.20453L147.228 53.6677L147.705 53.6677L147.705 6.20453L147.228 6.20453Z" fill="url(#paint39_linear_1303_3313)" />
        <circle cx="63.2307" cy="29.8993" r="4.82249" transform="rotate(-90 63.2307 29.8993)" fill="#FF4D00" />
        <defs>
            <linearGradient id="paint0_linear_1303_3313" x1="-12" y1="30.3817" x2="151" y2="30.3817" gradientUnits="userSpaceOnUse">
                <stop stop-color="#222222" />
                <stop offset="1" stop-color="#666666" />
            </linearGradient>
            <linearGradient id="paint1_linear_1303_3313" x1="-12" y1="30.3817" x2="151" y2="30.3817" gradientUnits="userSpaceOnUse">
                <stop stop-color="#222222" />
                <stop offset="1" stop-color="#666666" />
            </linearGradient>
            <linearGradient id="paint2_linear_1303_3313" x1="-12" y1="30.3817" x2="151" y2="30.3817" gradientUnits="userSpaceOnUse">
                <stop stop-color="#222222" />
                <stop offset="1" stop-color="#666666" />
            </linearGradient>
            <linearGradient id="paint3_linear_1303_3313" x1="-12" y1="30.3817" x2="151" y2="30.3817" gradientUnits="userSpaceOnUse">
                <stop stop-color="#222222" />
                <stop offset="1" stop-color="#666666" />
            </linearGradient>
            <linearGradient id="paint4_linear_1303_3313" x1="-12" y1="30.3817" x2="151" y2="30.3817" gradientUnits="userSpaceOnUse">
                <stop stop-color="#222222" />
                <stop offset="1" stop-color="#666666" />
            </linearGradient>
            <linearGradient id="paint5_linear_1303_3313" x1="-12" y1="30.3817" x2="151" y2="30.3817" gradientUnits="userSpaceOnUse">
                <stop stop-color="#222222" />
                <stop offset="1" stop-color="#666666" />
            </linearGradient>
            <linearGradient id="paint6_linear_1303_3313" x1="-12" y1="30.3817" x2="151" y2="30.3817" gradientUnits="userSpaceOnUse">
                <stop stop-color="#222222" />
                <stop offset="1" stop-color="#666666" />
            </linearGradient>
            <linearGradient id="paint7_linear_1303_3313" x1="-12" y1="30.3817" x2="151" y2="30.3817" gradientUnits="userSpaceOnUse">
                <stop stop-color="#222222" />
                <stop offset="1" stop-color="#666666" />
            </linearGradient>
            <linearGradient id="paint8_linear_1303_3313" x1="-12" y1="30.3817" x2="151" y2="30.3817" gradientUnits="userSpaceOnUse">
                <stop stop-color="#222222" />
                <stop offset="1" stop-color="#666666" />
            </linearGradient>
            <linearGradient id="paint9_linear_1303_3313" x1="-12" y1="30.3817" x2="151" y2="30.3817" gradientUnits="userSpaceOnUse">
                <stop stop-color="#222222" />
                <stop offset="1" stop-color="#666666" />
            </linearGradient>
            <linearGradient id="paint10_linear_1303_3313" x1="-12" y1="30.3817" x2="151" y2="30.3817" gradientUnits="userSpaceOnUse">
                <stop stop-color="#222222" />
                <stop offset="1" stop-color="#666666" />
            </linearGradient>
            <linearGradient id="paint11_linear_1303_3313" x1="-12" y1="30.3817" x2="151" y2="30.3817" gradientUnits="userSpaceOnUse">
                <stop stop-color="#222222" />
                <stop offset="1" stop-color="#666666" />
            </linearGradient>
            <linearGradient id="paint12_linear_1303_3313" x1="-12" y1="30.3817" x2="151" y2="30.3817" gradientUnits="userSpaceOnUse">
                <stop stop-color="#222222" />
                <stop offset="1" stop-color="#666666" />
            </linearGradient>
            <linearGradient id="paint13_linear_1303_3313" x1="-12" y1="30.3817" x2="151" y2="30.3817" gradientUnits="userSpaceOnUse">
                <stop stop-color="#222222" />
                <stop offset="1" stop-color="#666666" />
            </linearGradient>
            <linearGradient id="paint14_linear_1303_3313" x1="-12" y1="30.3817" x2="151" y2="30.3817" gradientUnits="userSpaceOnUse">
                <stop stop-color="#222222" />
                <stop offset="1" stop-color="#666666" />
            </linearGradient>
            <linearGradient id="paint15_linear_1303_3313" x1="-12" y1="30.3817" x2="151" y2="30.3817" gradientUnits="userSpaceOnUse">
                <stop stop-color="#222222" />
                <stop offset="1" stop-color="#666666" />
            </linearGradient>
            <linearGradient id="paint16_linear_1303_3313" x1="-12" y1="30.3817" x2="151" y2="30.3817" gradientUnits="userSpaceOnUse">
                <stop stop-color="#222222" />
                <stop offset="1" stop-color="#666666" />
            </linearGradient>
            <linearGradient id="paint17_linear_1303_3313" x1="-12" y1="30.3817" x2="151" y2="30.3817" gradientUnits="userSpaceOnUse">
                <stop stop-color="#222222" />
                <stop offset="1" stop-color="#666666" />
            </linearGradient>
            <linearGradient id="paint18_linear_1303_3313" x1="-12" y1="30.3817" x2="151" y2="30.3817" gradientUnits="userSpaceOnUse">
                <stop stop-color="#222222" />
                <stop offset="1" stop-color="#666666" />
            </linearGradient>
            <linearGradient id="paint19_linear_1303_3313" x1="-12" y1="30.3817" x2="151" y2="30.3817" gradientUnits="userSpaceOnUse">
                <stop stop-color="#222222" />
                <stop offset="1" stop-color="#666666" />
            </linearGradient>
            <linearGradient id="paint20_linear_1303_3313" x1="-12" y1="30.3817" x2="151" y2="30.3817" gradientUnits="userSpaceOnUse">
                <stop stop-color="#222222" />
                <stop offset="1" stop-color="#666666" />
            </linearGradient>
            <linearGradient id="paint21_linear_1303_3313" x1="-12" y1="30.3817" x2="151" y2="30.3817" gradientUnits="userSpaceOnUse">
                <stop stop-color="#222222" />
                <stop offset="1" stop-color="#666666" />
            </linearGradient>
            <linearGradient id="paint22_linear_1303_3313" x1="-12" y1="30.3817" x2="151" y2="30.3817" gradientUnits="userSpaceOnUse">
                <stop stop-color="#222222" />
                <stop offset="1" stop-color="#666666" />
            </linearGradient>
            <linearGradient id="paint23_linear_1303_3313" x1="-12" y1="30.3817" x2="151" y2="30.3817" gradientUnits="userSpaceOnUse">
                <stop stop-color="#222222" />
                <stop offset="1" stop-color="#666666" />
            </linearGradient>
            <linearGradient id="paint24_linear_1303_3313" x1="-12" y1="30.3817" x2="151" y2="30.3817" gradientUnits="userSpaceOnUse">
                <stop stop-color="#222222" />
                <stop offset="1" stop-color="#666666" />
            </linearGradient>
            <linearGradient id="paint25_linear_1303_3313" x1="-12" y1="30.3817" x2="151" y2="30.3817" gradientUnits="userSpaceOnUse">
                <stop stop-color="#222222" />
                <stop offset="1" stop-color="#666666" />
            </linearGradient>
            <linearGradient id="paint26_linear_1303_3313" x1="-12" y1="30.3817" x2="151" y2="30.3817" gradientUnits="userSpaceOnUse">
                <stop stop-color="#222222" />
                <stop offset="1" stop-color="#666666" />
            </linearGradient>
            <linearGradient id="paint27_linear_1303_3313" x1="-12" y1="30.3817" x2="151" y2="30.3817" gradientUnits="userSpaceOnUse">
                <stop stop-color="#222222" />
                <stop offset="1" stop-color="#666666" />
            </linearGradient>
            <linearGradient id="paint28_linear_1303_3313" x1="-12" y1="30.3817" x2="151" y2="30.3817" gradientUnits="userSpaceOnUse">
                <stop stop-color="#222222" />
                <stop offset="1" stop-color="#666666" />
            </linearGradient>
            <linearGradient id="paint29_linear_1303_3313" x1="-12" y1="30.3817" x2="151" y2="30.3817" gradientUnits="userSpaceOnUse">
                <stop stop-color="#222222" />
                <stop offset="1" stop-color="#666666" />
            </linearGradient>
            <linearGradient id="paint30_linear_1303_3313" x1="-12" y1="30.3817" x2="151" y2="30.3817" gradientUnits="userSpaceOnUse">
                <stop stop-color="#222222" />
                <stop offset="1" stop-color="#666666" />
            </linearGradient>
            <linearGradient id="paint31_linear_1303_3313" x1="-12" y1="30.3817" x2="151" y2="30.3817" gradientUnits="userSpaceOnUse">
                <stop stop-color="#222222" />
                <stop offset="1" stop-color="#666666" />
            </linearGradient>
            <linearGradient id="paint32_linear_1303_3313" x1="-12" y1="30.3817" x2="151" y2="30.3817" gradientUnits="userSpaceOnUse">
                <stop stop-color="#222222" />
                <stop offset="1" stop-color="#666666" />
            </linearGradient>
            <linearGradient id="paint33_linear_1303_3313" x1="-12" y1="30.3817" x2="151" y2="30.3817" gradientUnits="userSpaceOnUse">
                <stop stop-color="#222222" />
                <stop offset="1" stop-color="#666666" />
            </linearGradient>
            <linearGradient id="paint34_linear_1303_3313" x1="-12" y1="30.3817" x2="151" y2="30.3817" gradientUnits="userSpaceOnUse">
                <stop stop-color="#222222" />
                <stop offset="1" stop-color="#666666" />
            </linearGradient>
            <linearGradient id="paint35_linear_1303_3313" x1="-12" y1="30.3817" x2="151" y2="30.3817" gradientUnits="userSpaceOnUse">
                <stop stop-color="#222222" />
                <stop offset="1" stop-color="#666666" />
            </linearGradient>
            <linearGradient id="paint36_linear_1303_3313" x1="-12" y1="30.3817" x2="151" y2="30.3817" gradientUnits="userSpaceOnUse">
                <stop stop-color="#222222" />
                <stop offset="1" stop-color="#666666" />
            </linearGradient>
            <linearGradient id="paint37_linear_1303_3313" x1="-12" y1="30.3817" x2="151" y2="30.3817" gradientUnits="userSpaceOnUse">
                <stop stop-color="#222222" />
                <stop offset="1" stop-color="#666666" />
            </linearGradient>
            <linearGradient id="paint38_linear_1303_3313" x1="-12" y1="30.3817" x2="151" y2="30.3817" gradientUnits="userSpaceOnUse">
                <stop stop-color="#222222" />
                <stop offset="1" stop-color="#666666" />
            </linearGradient>
            <linearGradient id="paint39_linear_1303_3313" x1="-12" y1="30.3817" x2="151" y2="30.3817" gradientUnits="userSpaceOnUse">
                <stop stop-color="#222222" />
                <stop offset="1" stop-color="#666666" />
            </linearGradient>
        </defs>
    </svg>